<svg xmlns="http://www.w3.org/2000/svg" width="1200" height="400" xmlns:v="https://vecta.io/nano"><g paint-order="stroke"><path d="M88.228 182.454H40.955a5.33 5.33 0 0 1-5.329-5.329v-.574a5.33 5.33 0 0 1 5.329-5.329h47.273a5.33 5.33 0 0 1 5.329 5.329v.574a5.33 5.33 0 0 1-5.329 5.329m4.827 22.211h-52.1a5.33 5.33 0 0 1-5.329-5.329v-.578a5.33 5.33 0 0 1 5.329-5.329h52.099a5.33 5.33 0 0 1 5.329 5.329v.578a5.33 5.33 0 0 1-5.329 5.329m10.028 22.208H40.955a5.33 5.33 0 0 1-5.329-5.329v-.574a5.33 5.33 0 0 1 5.329-5.329h62.127a5.33 5.33 0 0 1 5.329 5.329v.574a5.33 5.33 0 0 1-5.329 5.329m15.222 22.212H40.955a5.33 5.33 0 0 1-5.329-5.329v-.574a5.33 5.33 0 0 1 5.329-5.329h77.349a5.33 5.33 0 0 1 5.329 5.329v.574a5.33 5.33 0 0 1-5.329 5.329m-9.57 22.211h-67.49a5.62 5.62 0 0 1-5.618-5.618h0a5.62 5.62 0 0 1 5.618-5.618h67.49a5.62 5.62 0 0 1 5.618 5.618h0a5.62 5.62 0 0 1-5.618 5.618" fill="#9411bb"/><g fill="#dd1f2d"><path d="M.019 305.215l102.681-.007c27.52.42 51.456-18.672 58.567-43.523 10.592-37.025-20.602-58.749-26.849-90.507-1.438-7.31-1.899-14.716-1.342-22.044 2.508-32.89 24.744-63.985 59.124-74.858 8.37-2.645 17.486-3.911 26.285-4.049l90.524-.31c6.082.007 11.032-4.878 11.108-10.956l.003-.224a11.09 11.09 0 0 0-11.06-11.232c-21.339-.052-67.579-.141-91.543.079-58.322.547-99.21 45.305-105.636 91.353-1.555 11.149-1.593 21.834-.148 32.099 2.336 16.633 8.999 31.875 18.648 46.747 8.8 13.561 10.764 19.766 10.771 26.918.014 20.317-15.387 37.345-35.47 37.747-27.355.55-54.731.141-81.993.138V159.56h42.622c11.779 0 21.655-8.741 23.261-20.41H.019v166.064m232.182-87.67h46.695a5.62 5.62 0 0 1 5.618 5.618h0a5.62 5.62 0 0 1-5.618 5.618h-46.695a5.62 5.62 0 0 1-5.618-5.618h0a5.62 5.62 0 0 1 5.618-5.618"/><path d="M227.374 195.336h51.521a5.62 5.62 0 0 1 5.618 5.614h0a5.62 5.62 0 0 1-5.618 5.618h-51.521a5.62 5.62 0 0 1-5.618-5.618h0a5.62 5.62 0 0 1 5.618-5.614m-10.027-22.212h61.549a5.62 5.62 0 0 1 5.618 5.618h0a5.62 5.62 0 0 1-5.618 5.614h-61.549a5.62 5.62 0 0 1-5.618-5.614h0a5.62 5.62 0 0 1 5.618-5.618m-15.511-22.208h77.349c2.945 0 5.329 2.384 5.329 5.325v.578a5.33 5.33 0 0 1-5.329 5.329h-77.349a5.33 5.33 0 0 1-5.329-5.329v-.578c0-2.941 2.384-5.325 5.329-5.325m9.281-22.211h68.068a5.33 5.33 0 0 1 5.329 5.329v.574a5.33 5.33 0 0 1-5.329 5.329h-68.068a5.33 5.33 0 0 1-5.329-5.329v-.574a5.33 5.33 0 0 1 5.329-5.329"/></g><path d="M320.121 94.786l-102.681.007c-27.52-.42-51.456 18.672-58.567 43.523-10.592 37.025 20.602 58.749 26.849 90.507 1.438 7.31 1.899 14.713 1.342 22.04-2.508 32.89-24.744 63.988-59.124 74.858-8.37 2.649-17.486 3.915-26.285 4.049l-90.524.313A11.09 11.09 0 0 0 .022 341.041c0 .072 0 .148-.003.224a11.09 11.09 0 0 0 11.06 11.228l91.543-.079c58.322-.544 99.21-45.302 105.636-91.353 1.555-11.149 1.593-21.834.148-32.099-2.336-16.629-8.999-31.872-18.648-46.747-8.8-13.557-10.764-19.763-10.771-26.918-.014-20.313 15.387-37.342 35.47-37.744 27.355-.55 54.731-.141 81.993-.141v123.026h-42.622c-11.779 0-21.655 8.745-23.261 20.413h89.554V94.786" fill="#9411bb"/></g><path d="M466.402 180.121q6.951 0 14.437 2.941 7.486 2.941 14.437 7.753h-.267q6.951 4.812 10.694 13.1 3.743 8.288 3.743 18.981v36.626q0 21.655-14.437 32.349-6.951 5.08-14.437 8.02-7.218 2.673-14.169 2.673h-58.281q-6.951 0-14.437-2.673-7.218-2.941-14.169-8.02-14.437-10.694-14.437-32.349v-17.645q0-12.565 15.773-12.565 16.041 0 16.041 12.565v15.506q0 6.951 4.01 12.565 4.01 5.614 13.902 5.614h44.914q9.892 0 13.902-5.614 4.01-5.614 4.01-12.565v-32.349q0-6.684-4.01-12.298-4.01-5.882-13.902-5.882h-51.597q-13.902 0-28.606-10.159-14.437-11.228-14.437-32.349v-31.814q0-10.694 3.743-18.714 3.743-8.288 10.694-13.367h-.267q6.951-4.545 14.437-7.486 7.486-2.941 14.437-2.941h58.281q6.951 0 14.437 2.941 7.486 2.941 14.437 7.486h-.267q6.951 5.08 10.694 13.367 3.743 8.02 3.743 18.714v15.773q0 12.565-16.041 12.565-15.773 0-15.773-12.565V134.94q0-6.684-4.01-12.298-4.01-5.614-13.902-5.614h-44.914q-9.892 0-13.902 5.614-4.01 5.614-4.01 12.298v27.269q0 6.951 4.01 12.565 4.01 5.347 13.902 5.347zm155.327-63.895l-58.548 179.655v-.267q-1.604 4.01-4.545 6.684-2.673 2.406-6.684 2.406-2.139 0-4.278-.535-1.871-.267-4.01-.802h.267q-15.239-4.812-11.228-17.11l60.954-185.269q1.337-4.278 4.545-7.218 3.475-2.941 8.02-3.475 4.545-.802 8.822-1.069 4.278-.535 6.684-.535 2.406 0 6.684.535 4.278.267 8.822.802 3.743.535 7.218 4.01 3.743 3.475 5.614 6.951 14.971 45.983 30.21 92.768 15.506 46.518 30.477 92.501 3.743 12.298-11.228 17.11-2.139.535-4.01.802-1.604.535-3.743.535-3.743 0-6.951-2.406-2.941-2.673-4.278-6.684v.267zm20.051 121.909q0 8.555-6.149 14.704-5.882 5.882-14.437 5.882-8.555 0-14.437-5.882-5.882-6.149-5.882-14.704 0-8.555 5.882-14.437 5.882-6.149 14.437-6.149 8.555 0 14.437 6.149 6.149 5.882 6.149 14.437zm109.879 64.43q-9.892 0-13.367-5.08-3.475-5.08-3.475-11.228V101.522q0-12.833 15.506-12.833 16.041 0 16.041 12.833v174.041h89.293q9.624 0 9.624 13.1.535 13.902-9.624 13.902zm201.042 1.069q-5.347 0-11.496-1.604-5.882-1.871-8.555-6.684-6.149-20.853-12.833-42.775-6.684-21.922-13.367-43.042-7.486-24.863-16.041-51.597-8.555-27.002-16.041-51.597-1.604-5.882 1.871-10.159 3.475-4.545 9.892-6.684 4.01-1.069 6.951-1.069 9.09 0 11.763 9.09l19.783 63.361q2.673 9.624 6.149 21.12 3.743 11.496 7.486 23.526 3.743 12.03 7.486 24.061 3.743 11.763 6.951 21.922 5.08-16.843 10.961-36.359 6.149-19.783 12.298-40.102 6.416-20.318 12.565-40.102 6.149-20.051 11.496-37.428 2.941-9.09 11.496-9.09 3.208 0 7.486 1.069 14.704 4.01 11.496 16.843-14.437 46.785-29.14 94.372-14.704 47.587-29.14 94.64-2.139 5.347-8.02 6.951-5.614 1.337-11.496 1.337zm204.251-213.608q6.951 0 14.437 2.941 7.486 2.941 14.437 7.486h-.267q6.951 5.08 10.694 13.367 3.743 8.02 3.743 18.714v126.988q0 21.655-14.437 32.349-6.951 5.08-14.437 8.02-7.218 2.673-14.169 2.673h-58.281q-6.951 0-14.437-2.673-7.218-2.941-14.169-8.02-6.951-5.347-10.694-13.1-3.743-8.02-3.743-19.249V132.534q0-10.694 3.743-18.714 3.743-8.288 10.694-13.367h-.267q6.951-4.545 14.437-7.486 7.486-2.941 14.437-2.941zm-6.684 185.537q9.892 0 13.902-5.614 4.01-5.614 4.01-12.565V134.94q0-6.684-4.01-12.298-4.01-5.614-13.902-5.614h-44.914q-9.892 0-13.902 5.614-4.01 5.614-4.01 12.298v122.444q0 6.951 4.01 12.565 4.01 5.614 13.902 5.614z" fill="#9411bb"/></svg>