<svg xmlns="http://www.w3.org/2000/svg" width="640" height="640" paint-order="stroke" xmlns:v="https://vecta.io/nano"><path d="M180.762 285.993H89.141c-5.707 0-10.328-4.62-10.328-10.328v-1.113c0-5.707 4.62-10.328 10.328-10.328h91.621a10.33 10.33 0 0 1 10.328 10.328v1.113a10.33 10.33 0 0 1-10.328 10.328m9.354 43.049H89.141a10.33 10.33 0 0 1-10.328-10.328v-1.12a10.33 10.33 0 0 1 10.328-10.328h100.975c5.7 0 10.328 4.627 10.328 10.328v1.12c0 5.7-4.627 10.328-10.328 10.328m19.435 43.042H89.141c-5.707 0-10.328-4.62-10.328-10.328v-1.113a10.33 10.33 0 0 1 10.328-10.328h120.41c5.7 0 10.328 4.627 10.328 10.328v1.113a10.33 10.33 0 0 1-10.328 10.328m29.501 43.048H89.14a10.33 10.33 0 0 1-10.328-10.328v-1.113c0-5.707 4.62-10.328 10.328-10.328h149.912c5.707 0 10.328 4.62 10.328 10.328v1.113a10.33 10.33 0 0 1-10.328 10.328m-18.548 43.049H89.7a10.89 10.89 0 0 1-10.888-10.888h0A10.89 10.89 0 0 1 89.7 436.406h130.804a10.89 10.89 0 0 1 10.888 10.888h0a10.89 10.89 0 0 1-10.888 10.888" fill="#9411bb"/><g fill="#dd1f2d"><path d="M9.801 523.919l199.01-.013c53.338.813 99.728-36.19 113.509-84.354 20.528-71.759-39.93-113.863-52.038-175.414-2.787-14.168-3.68-28.522-2.6-42.723 4.86-63.745 47.957-124.01 114.589-145.085 16.221-5.127 33.889-7.581 50.944-7.847l175.448-.6c11.788.013 21.382-9.454 21.528-21.235 0-.147 0-.293.007-.433.153-11.954-9.481-21.742-21.435-21.768-41.357-.1-130.977-.273-177.421.153-113.036 1.06-192.282 87.807-204.737 177.054-3.014 21.608-3.087 42.317-.287 62.212 4.527 32.236 17.441 61.778 36.143 90.601 17.055 26.282 20.862 38.31 20.875 52.171.027 39.377-29.822 72.379-68.746 73.159-53.018 1.067-106.075.273-158.913.267V241.623h82.607c22.829 0 41.97-16.941 45.084-39.557H9.801v321.853m449.997-169.917h90.501a10.89 10.89 0 0 1 10.888 10.888h0a10.89 10.89 0 0 1-10.888 10.888h-90.501a10.89 10.89 0 0 1-10.888-10.888h0a10.89 10.89 0 0 1 10.888-10.888"/><path d="M450.444 310.96h99.855a10.89 10.89 0 0 1 10.888 10.881h0a10.89 10.89 0 0 1-10.888 10.888h-99.855a10.89 10.89 0 0 1-10.888-10.888h0a10.89 10.89 0 0 1 10.888-10.881m-19.434-43.049H550.3a10.89 10.89 0 0 1 10.888 10.888h0A10.89 10.89 0 0 1 550.3 289.68H431.01a10.89 10.89 0 0 1-10.888-10.881h0a10.89 10.89 0 0 1 10.888-10.888m-30.062-43.042H550.86c5.707 0 10.328 4.62 10.328 10.321v1.12a10.33 10.33 0 0 1-10.328 10.328H400.948a10.33 10.33 0 0 1-10.328-10.328v-1.12c0-5.7 4.62-10.321 10.328-10.321m17.988-43.048H550.86c5.707 0 10.328 4.62 10.328 10.328v1.113c0 5.707-4.62 10.328-10.328 10.328H418.936a10.33 10.33 0 0 1-10.328-10.328v-1.113a10.33 10.33 0 0 1 10.328-10.328"/></g><path d="M630.199 116.083l-199.01.013c-53.338-.813-99.728 36.19-113.509 84.354-20.528 71.759 39.93 113.863 52.038 175.414 2.787 14.168 3.68 28.516 2.6 42.717-4.86 63.745-47.957 124.017-114.589 145.085-16.221 5.134-33.889 7.587-50.944 7.847l-175.448.607c-11.788-.02-21.382 9.447-21.528 21.235 0 .14 0 .287-.007.433a21.49 21.49 0 0 0 21.435 21.762l177.421-.153c113.036-1.053 192.282-87.8 204.737-177.054 3.014-21.608 3.087-42.317.287-62.212-4.527-32.229-17.441-61.772-36.143-90.601-17.055-26.275-20.862-38.303-20.875-52.171-.027-39.37 29.822-72.373 68.746-73.153 53.018-1.067 106.075-.273 158.913-.273v238.439h-82.607c-22.829 0-41.97 16.948-45.084 39.563h173.567V116.083" fill="#9411bb"/></svg>