<?xml version="1.0" encoding="UTF-8" standalone="no"?>
<svg
   xml:space="preserve"
   width="1280"
   height="320"
   version="1.1"
   viewBox="0 0 1280 320"
   id="svg5"
   sodipodi:docname="logo-text-h.svg"
   inkscape:version="1.4.2 (f4327f4, 2025-05-13)"
   xmlns:inkscape="http://www.inkscape.org/namespaces/inkscape"
   xmlns:sodipodi="http://sodipodi.sourceforge.net/DTD/sodipodi-0.dtd"
   xmlns="http://www.w3.org/2000/svg"
   xmlns:svg="http://www.w3.org/2000/svg"><defs
     id="defs5" /><sodipodi:namedview
     id="namedview5"
     pagecolor="#ffffff"
     bordercolor="#000000"
     borderopacity="0.25"
     inkscape:showpageshadow="2"
     inkscape:pageopacity="0.0"
     inkscape:pagecheckerboard="0"
     inkscape:deskcolor="#d1d1d1"
     inkscape:zoom="1.2860505"
     inkscape:cx="302.08767"
     inkscape:cy="312.58493"
     inkscape:window-width="3440"
     inkscape:window-height="1369"
     inkscape:window-x="2552"
     inkscape:window-y="-8"
     inkscape:window-maximized="1"
     inkscape:current-layer="svg5"
     inkscape:lockguides="false"
     showgrid="true"><inkscape:grid
       id="grid1"
       units="px"
       originx="0"
       originy="0"
       spacingx="1"
       spacingy="1"
       empcolor="#0099e5"
       empopacity="0.30196078"
       color="#0099e5"
       opacity="0.14901961"
       empspacing="5"
       enabled="true"
       visible="true" /><inkscape:grid
       type="modular"
       id="grid2"
       units="px"
       originx="0"
       originy="0"
       spacingx="151.1811"
       spacingy="151.1811"
       empcolor="#0047cb"
       empopacity="0.30196078"
       color="#0099e5"
       opacity="0.14901961"
       empspacing="0"
       marginx="0"
       marginy="0"
       gapx="37.795276"
       gapy="37.795276"
       enabled="false"
       visible="true" /><inkscape:grid
       id="grid3"
       units="px"
       originx="0"
       originy="0"
       spacingx="1"
       spacingy="1"
       empcolor="#0099e5"
       empopacity="0.30196078"
       color="#0099e5"
       opacity="0.14901961"
       empspacing="5"
       enabled="false"
       visible="true" /><inkscape:grid
       type="modular"
       id="grid4"
       units="px"
       originx="0"
       originy="0"
       spacingx="151.1811"
       spacingy="151.1811"
       empcolor="#0047cb"
       empopacity="0.30196078"
       color="#0099e5"
       opacity="0.14901961"
       empspacing="0"
       marginx="0"
       marginy="0"
       gapx="37.795276"
       gapy="37.795276"
       enabled="false"
       visible="true" /><inkscape:grid
       type="modular"
       id="grid5"
       units="px"
       originx="0"
       originy="0"
       spacingx="151.1811"
       spacingy="151.1811"
       empcolor="#0047cb"
       empopacity="0.30196078"
       color="#0099e5"
       opacity="0.14901961"
       empspacing="0"
       marginx="0"
       marginy="0"
       gapx="37.795276"
       gapy="37.795276"
       enabled="false"
       visible="true" /><inkscape:grid
       id="grid6"
       units="px"
       originx="0"
       originy="0"
       spacingx="1"
       spacingy="1"
       empcolor="#0099e5"
       empopacity="0.30196078"
       color="#0099e5"
       opacity="0.14901961"
       empspacing="5"
       enabled="false"
       visible="true" /></sodipodi:namedview><g
     fill-rule="nonzero"
     paint-order="stroke"
     id="g4"
     transform="matrix(0.67340862,0,0,0.67340862,-46.955811,7.7750359)"><path
       d="M 212.311,202.407 H 141.44 a 7.985,7.985 0 0 1 -7.989,-7.988 v -0.862 a 7.985,7.985 0 0 1 7.99,-7.988 h 70.871 a 7.989,7.989 0 0 1 7.989,7.988 v 0.862 a 7.989,7.989 0 0 1 -7.989,7.988 m 7.232,33.298 h -78.107 a 7.989,7.989 0 0 1 -7.989,-7.989 v -0.866 a 7.989,7.989 0 0 1 7.989,-7.989 h 78.107 c 4.41,0 7.99,3.58 7.99,7.989 v 0.866 c 0,4.41 -3.58,7.989 -7.99,7.989 m 15.034,33.29 h -93.141 a 7.985,7.985 0 0 1 -7.99,-7.988 v -0.861 a 7.989,7.989 0 0 1 7.99,-7.99 h 93.14 c 4.41,0 7.99,3.58 7.99,7.99 v 0.86 a 7.989,7.989 0 0 1 -7.99,7.99 m 22.82,33.294 H 141.435 a 7.989,7.989 0 0 1 -7.989,-7.988 v -0.861 a 7.985,7.985 0 0 1 7.989,-7.99 h 115.962 a 7.985,7.985 0 0 1 7.989,7.99 v 0.86 a 7.989,7.989 0 0 1 -7.989,7.99 M 243.05,335.588 H 141.87 c -4.652,0 -8.422,-3.77 -8.422,-8.422 0,-4.652 3.77,-8.422 8.422,-8.422 h 101.182 c 4.651,0 8.421,3.77 8.421,8.422 0,4.652 -3.77,8.422 -8.421,8.422"
       fill="#1576b9"
       opacity="1"
       id="path1" /><path
       d="m 80.05,386.452 c 0,0 105.142,-0.758 153.94,-0.01 41.26,0.629 77.144,-27.994 87.804,-65.25 15.88,-55.509 -30.887,-88.077 -40.253,-135.69 -2.155,-10.96 -2.847,-22.063 -2.011,-33.048 3.76,-49.31 37.097,-95.926 88.639,-112.229 12.548,-3.966 26.215,-5.863 39.407,-6.07 35.09,-0.541 104.111,-0.51 135.715,-0.464 9.118,0.01 16.54,-7.313 16.653,-16.426 0,-0.113 0,-0.227 0.005,-0.335 C 560.068,7.683 552.616,0.112 543.369,0.091 511.377,0.014 442.052,-0.12 406.126,0.21 318.689,1.03 257.389,68.132 247.755,137.168 c -2.331,16.715 -2.388,32.733 -0.222,48.123 3.502,24.935 13.491,47.787 27.958,70.083 13.192,20.33 16.137,29.634 16.147,40.356 0.021,30.459 -23.068,55.988 -53.177,56.591 -41.01,0.825 -82.053,0.211 -122.925,0.206 V 168.086 h 63.9 c 17.658,0 32.465,-13.105 34.873,-30.599 H 80.05 V 386.452 M 428.122,255.008 h 70.006 c 4.652,0 8.422,3.77 8.422,8.422 0,4.652 -3.77,8.422 -8.422,8.422 h -70.006 c -4.652,0 -8.422,-3.77 -8.422,-8.422 0,-4.652 3.77,-8.422 8.422,-8.422 m -7.233,-33.29 h 77.241 c 4.652,0 8.422,3.77 8.422,8.416 a 8.421,8.421 0 0 1 -8.422,8.422 h -77.24 a 8.421,8.421 0 0 1 -8.422,-8.422 c 0,-4.646 3.77,-8.416 8.422,-8.416"
       fill="#1b9554"
       opacity="1"
       id="path2" /><path
       d="m 405.855,188.42 h 92.275 a 8.421,8.421 0 0 1 8.422,8.423 c 0,4.646 -3.77,8.416 -8.422,8.416 h -92.275 c -4.652,0 -8.422,-3.77 -8.422,-8.416 a 8.421,8.421 0 0 1 8.422,-8.422 M 382.603,155.13 h 115.962 a 7.984,7.984 0 0 1 7.989,7.983 v 0.866 a 7.989,7.989 0 0 1 -7.989,7.99 H 382.603 a 7.989,7.989 0 0 1 -7.989,-7.99 v -0.866 a 7.984,7.984 0 0 1 7.989,-7.984 m 13.913,-33.295 h 102.048 a 7.985,7.985 0 0 1 7.989,7.99 v 0.86 a 7.985,7.985 0 0 1 -7.989,7.99 H 396.516 a 7.989,7.989 0 0 1 -7.988,-7.99 v -0.86 a 7.989,7.989 0 0 1 7.988,-7.99"
       fill="#1b9554"
       opacity="1"
       id="path3" /><path
       d="m 559.95,70.969 c 0,0 -105.142,0.753 -153.94,0.01 -41.26,-0.629 -77.144,27.994 -87.804,65.25 -15.88,55.509 30.887,88.077 40.253,135.69 2.155,10.96 2.847,22.058 2.011,33.043 -3.76,49.31 -37.097,95.931 -88.639,112.228 -12.548,3.972 -26.215,5.87 -39.407,6.07 -35.09,0.547 -104.111,0.516 -135.715,0.47 -9.118,-0.016 -16.54,7.308 -16.653,16.426 0,0.108 0,0.222 -0.005,0.335 -0.119,9.247 7.333,16.813 16.58,16.834 31.991,0.082 101.316,0.216 137.242,-0.119 87.437,-0.815 148.737,-67.917 158.371,-136.958 2.331,-16.715 2.388,-32.733 0.222,-48.123 -3.502,-24.93 -13.491,-47.782 -27.958,-70.083 -13.192,-20.325 -16.137,-29.629 -16.147,-40.356 -0.021,-30.454 23.068,-55.983 53.177,-56.586 41.01,-0.825 82.053,-0.211 122.925,-0.211 V 289.33 h -63.9 c -17.658,0 -32.465,13.11 -34.873,30.604 H 559.95 V 70.969"
       fill="#1576b9"
       opacity="1"
       id="path4" /></g><path
     d="m 454.38097,139.25274 q 7.58452,0 15.75248,4.24299 8.16793,4.24298 15.75245,11.18605 h -0.29172 q 7.58452,6.94308 11.66849,18.90058 4.08396,11.95753 4.08396,27.38659 v 52.84449 q 0,31.24383 -15.75245,46.67288 -7.58452,7.32879 -15.75245,11.57178 -7.87624,3.85726 -15.46076,3.85726 h -63.59323 q -7.58451,0 -15.75244,-3.85726 -7.87623,-4.24299 -15.46075,-11.57178 Q 343.8221,285.05727 343.8221,253.81344 V 228.3555 q 0,-18.12914 17.21101,-18.12914 17.50273,0 17.50273,18.12914 v 22.37212 q 0,10.02889 4.37568,18.12914 4.37568,8.10025 15.16902,8.10025 h 49.00763 q 10.79336,0 15.16904,-8.10025 4.37569,-8.10025 4.37569,-18.12914 v -46.67288 q 0,-9.64315 -4.37569,-17.7434 -4.37568,-8.48599 -15.16904,-8.48599 h -56.30043 q -15.16903,0 -31.21319,-14.65758 Q 343.8221,146.96725 343.8221,116.49488 V 70.593453 q 0,-15.429049 4.08397,-27.000846 4.08396,-11.957506 11.66848,-19.286311 h -0.29172 q 7.58452,-6.557343 15.75247,-10.800336 8.16793,-4.2429929 15.75244,-4.2429929 h 63.59323 q 7.58452,0 15.75248,4.2429929 8.16793,4.242993 15.75245,10.800336 h -0.29172 q 7.58452,7.328805 11.66849,19.286311 4.08396,11.571797 4.08396,27.000846 v 22.757853 q 0,18.129134 -17.50272,18.129134 -17.21101,0 -17.21101,-18.129134 V 74.064989 q 0,-9.643154 -4.37569,-17.743415 -4.37568,-8.100243 -15.16904,-8.100243 h -49.00763 q -10.79334,0 -15.16902,8.100243 -4.37568,8.100261 -4.37568,17.743415 v 39.344081 q 0,10.02889 4.37568,18.12913 4.37568,7.71454 15.16902,7.71454 z M 623.86571,47.064149 559.98076,306.2722 v -0.38572 q -1.75027,5.78589 -4.9591,9.64317 -2.91712,3.47152 -7.2928,3.47152 -2.3337,0 -4.66739,-0.77144 -2.04199,-0.38573 -4.37568,-1.15719 h 0.29171 q -16.62759,-6.94307 -12.25191,-24.68647 L 593.23594,25.077746 q 1.45857,-6.171623 4.95911,-10.414605 3.79227,-4.242993 8.75137,-5.0144433 4.95911,-1.1571801 9.6265,-1.5429075 4.66738,-0.7714527 7.29279,-0.7714527 2.62542,0 7.2928,0.7714527 4.66741,0.3857274 9.6265,1.1571769 4.08398,0.7714509 7.87623,5.7858929 4.08397,5.014454 6.12596,10.028886 16.33588,66.344923 32.96346,133.847034 16.91932,67.11636 33.25518,133.46129 4.08397,17.7434 -12.25191,24.68647 -2.33369,0.77146 -4.37568,1.15719 -1.75027,0.77144 -4.08396,0.77144 -4.08397,0 -7.58452,-3.47152 -3.20883,-3.85728 -4.66739,-9.64317 v 0.38572 z m 21.87841,175.891181 q 0,12.34324 -6.70937,21.21495 -6.41767,8.48597 -15.75246,8.48597 -9.33479,0 -15.75245,-8.48597 -6.41766,-8.87171 -6.41766,-21.21495 0,-12.34324 6.41766,-20.82922 6.41766,-8.8717 15.75245,-8.8717 9.33479,0 15.75246,8.8717 6.70937,8.48598 6.70937,20.82922 z m 119.89367,92.96003 q -10.79334,0 -14.5856,-7.32879 -3.79225,-7.3288 -3.79225,-16.2005 V 25.849197 q 0,-18.5148595 16.9193,-18.5148595 17.50272,0 17.50272,18.5148595 V 276.95701 h 97.43186 q 10.50161,0 10.50161,18.90059 0.58343,20.05776 -10.50161,20.05776 z m 219.36755,1.5429 q -5.83437,0 -12.54373,-2.31436 -6.41769,-2.70008 -9.33475,-9.64315 -6.70932,-30.08665 -14.00209,-61.7162 -7.29289,-31.62955 -14.58575,-62.10193 -8.16782,-35.87254 -17.50262,-74.44517 -9.3348,-38.958341 -17.50273,-74.445168 -1.75032,-8.485986 2.04193,-14.657598 3.79224,-6.557355 10.7934,-9.6431664 4.37568,-1.5429065 7.58448,-1.5429065 9.91826,0 12.83534,13.1147029 l 21.58679,91.417126 q 2.91698,13.88614 6.70932,30.47238 4.08397,16.58622 8.16784,33.94391 l 8.168,34.71536 q 4.08394,16.97195 7.58457,31.62955 5.5425,-24.30075 11.9602,-52.45877 6.70926,-28.54374 13.41866,-57.85894 7.0011,-29.3152 13.7104,-57.858941 6.7095,-28.92947 12.5436,-54.001675 3.2088,-13.1147029 12.5437,-13.1147029 3.5006,0 8.1678,1.5429065 16.0443,5.7858934 12.5437,24.3007644 -15.7524,67.502098 -31.7966,136.161378 -16.0441,68.65927 -31.7966,136.54709 -2.3337,7.71452 -8.75136,10.0289 -6.1258,1.92861 -12.5435,1.92861 z M 1207.8731,9.2629671 q 7.5846,0 15.7526,4.2429929 8.1679,4.242993 15.7524,10.800336 h -0.2917 q 7.5845,7.328805 11.6686,19.286311 4.0839,11.571797 4.0839,27.000846 V 253.81344 q 0,31.24383 -15.7525,46.67288 -7.5845,7.32879 -15.7525,11.57178 -7.8762,3.85726 -15.4608,3.85726 H 1144.28 q -7.5846,0 -15.7525,-3.85726 -7.8763,-4.24299 -15.4607,-11.57178 -7.5845,-7.71454 -11.6684,-18.90059 -4.0841,-11.57179 -4.0841,-27.77229 V 70.593453 q 0,-15.429049 4.0841,-27.000846 4.0839,-11.957506 11.6684,-19.286311 h -0.2918 q 7.5846,-6.557343 15.7525,-10.800336 8.1679,-4.2429929 15.7525,-4.2429929 z m -7.2928,267.6940429 q 10.7934,0 15.1692,-8.10025 4.3757,-8.10025 4.3757,-18.12914 V 74.064989 q 0,-9.643154 -4.3757,-17.743415 -4.3758,-8.100243 -15.1692,-8.100243 h -49.0074 q -10.7934,0 -15.1691,8.100243 -4.3758,8.100261 -4.3758,17.743415 V 250.72762 q 0,10.02889 4.3758,18.12914 4.3757,8.10025 15.1691,8.10025 z"
     fill="#1576b9"
     fill-rule="nonzero"
     aria-label="SALVO"
     font-family="Gugi"
     opacity="1"
     style="-inkscape-font-specification:Gugi;stroke-width:2.09651"
     id="path5" /></svg>
